<svg width="100" height="100" viewBox="0 0 100 100" fill="none" xmlns="http://www.w3.org/2000/svg">
<g id="&#230;&#186;&#144;&#230;&#150;&#135;&#228;&#187;&#182;">
<g id="Group 2085664111">
<g id="Group 2085664095">
<path id="Vector 150" d="M41.1431 46.5712C70.7407 42.3792 75.0216 74.9349 73.1643 94.076C73.0092 95.6751 71.0128 96.1698 70.0539 94.8806L68.4252 92.691C66.8934 90.6317 63.7677 90.765 62.4169 92.9473L62.0551 93.5319C60.7231 95.6837 57.6549 95.8503 56.0978 93.8553L55.4907 93.0774C54.0683 91.2549 51.3284 91.2055 49.8413 92.9756L48.7177 94.3129C47.2988 96.0016 44.7153 96.0481 43.2366 94.4115L41.7381 92.753C40.3854 91.2559 38.0722 91.1467 36.5845 92.5099L35.2208 93.7594C33.5447 95.2952 30.7759 96.6055 29.5903 94.6658C27.6546 91.4988 30.0772 83.8837 30.0772 78.0603C30.0772 64.3714 16.8049 50.8726 41.1431 46.5712Z" fill="#4D5EFF"/>
<g id="Group 2085664093">
<path id="Ellipse 37" d="M35.0734 62.9323C34.8354 65.7135 36.8971 68.1609 39.6782 68.3988C42.4593 68.6367 44.9067 66.5751 45.1446 63.7939C45.3826 61.0128 43.3209 58.5654 40.5398 58.3275C37.7587 58.0896 35.3113 60.1512 35.0734 62.9323Z" fill="white"/>
<path id="Ellipse 39" d="M37.521 60.7996C35.8702 61.2713 34.9658 63.1718 35.5009 65.0445C36.036 66.9171 37.808 68.0528 39.4588 67.5811C41.1095 67.1094 42.014 65.209 41.4789 63.3363C40.9438 61.4636 39.1718 60.3279 37.521 60.7996Z" fill="#000818"/>
</g>
<g id="Group 2085664094">
<path id="Ellipse 37_2" d="M48.1344 58.9646C47.8965 61.7457 49.9581 64.1931 52.7392 64.431C55.5203 64.6689 57.9678 62.6073 58.2057 59.8262C58.4436 57.0451 56.3819 54.5977 53.6008 54.3597C50.8197 54.1218 48.3723 56.1835 48.1344 58.9646Z" fill="white"/>
<path id="Ellipse 39_2" d="M50.582 56.8319C48.9312 57.3036 48.0268 59.204 48.5619 61.0767C49.097 62.9493 50.869 64.0851 52.5198 63.6134C54.1706 63.1417 55.075 61.2412 54.5399 59.3685C54.0048 57.4959 52.2328 56.3602 50.582 56.8319Z" fill="#000818"/>
</g>
<path id="Vector 3436" d="M45.1914 73.5688C46.7231 74.6861 50.426 76.1554 52.9837 73.0951" stroke="white" stroke-width="1.58952" stroke-linecap="round"/>
</g>
<path id="Union" fill-rule="evenodd" clip-rule="evenodd" d="M81.2767 45.1464C80.708 45.3192 80.3097 45.7911 80.0706 46.3993C79.6225 47.5395 80.006 48.6167 80.764 49.3316C81.4267 49.9567 82.3853 50.3253 83.3949 50.3024C83.2098 52.7667 81.5411 56.0733 76.2738 58.9586C75.9639 59.1283 75.8503 59.5171 76.02 59.8269C76.1898 60.1368 76.5785 60.2504 76.8884 60.0806C82.6589 56.9198 84.6015 53.0957 84.6895 50.0518C85.5291 49.7372 86.3204 49.1189 86.9403 48.1455C87.7789 46.8287 88.2913 44.8865 88.2531 42.1822C88.2482 41.8289 87.9577 41.5466 87.6045 41.5516C87.2512 41.5565 86.9689 41.847 86.9739 42.2002C87.0099 44.7504 86.5222 46.4201 85.8611 47.4582C85.484 48.0504 85.0472 48.4436 84.6019 48.6877C84.3663 47.234 83.6889 46.0428 82.8458 45.4597C82.4 45.1514 81.8415 44.9747 81.2767 45.1464ZM81.2614 46.8673C81.4124 46.4829 81.5777 46.3921 81.6487 46.3705C81.7236 46.3477 81.8779 46.3459 82.1181 46.512C82.6104 46.8525 83.181 47.7325 83.3586 49.0235C82.6743 49.0373 82.048 48.7839 81.6418 48.4008C81.2014 47.9855 81.0341 47.4457 81.2614 46.8673Z" fill="#000818"/>
<path id="Union_2" fill-rule="evenodd" clip-rule="evenodd" d="M17.4209 70.7772C17.0617 70.7862 16.7534 70.9969 16.516 71.3128C16.071 71.905 16.1208 72.5945 16.4472 73.1334C16.7326 73.6046 17.2318 73.974 17.8238 74.1234C17.3185 75.5296 15.8128 77.1874 12.278 78.0193C12.07 78.0682 11.9411 78.2765 11.9901 78.4844C12.039 78.6924 12.2473 78.8213 12.4552 78.7723C16.3277 77.861 18.0764 75.9458 18.6186 74.1862C19.1586 74.1382 19.7194 73.9055 20.2377 73.4382C20.9387 72.8061 21.5506 71.757 21.9644 70.1749C22.0185 69.9682 21.8948 69.7569 21.6881 69.7028C21.4815 69.6487 21.2701 69.7724 21.2161 69.9791C20.8258 71.471 20.2723 72.3654 19.7196 72.8637C19.4044 73.148 19.0864 73.3067 18.7875 73.3771C18.8847 72.492 18.682 71.6886 18.2848 71.2128C18.0747 70.9613 17.7778 70.7682 17.4209 70.7772ZM17.1345 71.7775C17.2845 71.5779 17.3954 71.5516 17.4403 71.5505C17.4876 71.5493 17.5778 71.5731 17.691 71.7086C17.923 71.9865 18.1136 72.5913 18.0089 73.3723C17.6078 73.27 17.2837 73.0213 17.1088 72.7326C16.9192 72.4195 16.9087 72.0779 17.1345 71.7775Z" fill="#000818"/>
</g>
</g>
</svg>
